<svg id="SvgjsSvg1000" xmlns="http://www.w3.org/2000/svg" version="1.1" xmlns:xlink="http://www.w3.org/1999/xlink" xmlns:svgjs="http://svgjs.com/svgjs" width="66" height="67" viewBox="0 0 66 67"><title>Shape 5</title><desc>Created with Avocode.</desc><defs id="SvgjsDefs1001"></defs><path id="SvgjsPath1007" d="M612 3062.53C612 3081.01 626.763 3095.9900000000002 645 3095.9900000000002C663.228 3095.9900000000002 678 3081.01 678 3062.53C678 3044.0400000000004 663.228 3029.01 645 3029.01C626.763 3029.01 612 3044.0400000000004 612 3062.53ZM662.122 3050.29L665.0949999999999 3053.31C666.3589999999999 3054.59 666.3589999999999 3056.66 665.0949999999999 3057.95L646.7189999999999 3076.52L643.746 3079.54C643.2719999999999 3080.0099999999998 642.696 3080.32 642.083 3080.44C641.0609999999999 3080.64 639.9639999999999 3080.34 639.165 3079.54L636.192 3076.52C636.034 3076.36 635.895 3076.22 635.784 3076.04L626.502 3066.69C625.2389999999999 3065.4 625.2389999999999 3063.33 626.502 3062.05L629.4749999999999 3059.04C630.7479999999999 3057.74 632.7829999999999 3057.74 634.0559999999999 3059.04L641.4879999999999 3066.57L657.5419999999999 3050.29C658.1739999999999 3049.65 658.973 3049.32 659.8 3049.32C660.627 3049.32 661.481 3049.65 662.122 3050.29Z " fill="#43a06d" fill-opacity="1" transform="matrix(1,0,0,1,-612,-3029)"></path></svg>